<?xml version="1.0" encoding="UTF-8"?>
<svg id="Layer_2" data-name="Layer 2" xmlns="http://www.w3.org/2000/svg" viewBox="0 0 197.26 466.3">
  <defs>
    <style>
      .cls-1 {
        fill: #fcfdfd;
      }
    </style>
  </defs>
  <g id="Layer_2-2" data-name="Layer 2">
    <path class="cls-1" d="M97.56,243.51l-1.39,20.17-5.93,46.35-.6,8.63c-.38,5.52-.73,10.75-1.8,16.18-.88,4.49-1.9,8.94-1.46,13.5l1.33,13.84c.6,6.27.76,12.32-.39,18.54l-3.71,20.07c-2.11,11.4-3.52,23.54-.02,34.5.7,2.18.68,4.43.05,6.61-1.04,3.58-.7,7.05-.22,10.72l.81,6.23c.5,3.84-2.5,6.59-6.27,7.04s-7.28-.66-9.72-3.62c-2.15-2.61-4.83-4.53-7.78-6.13-3.7-2.01-6.37-7.23-4.43-9.27,1-1.05,2.62-1.03,3.82-1.59,2.11-.99,3.78-2.39,6.16-2.96-.03-6.54,2.31-11.75.95-19.32l-5.55-30.99-2.93-17.89c-1.32-8.03-.84-15.83.44-23.91,2-12.7,3.31-29.66,1-41.93l-2.87-15.21c-2.27-12.04-3.03-23.92-3.7-36.19-.58-10.62.08-20.69,1.88-31.16l5.72-33.3c-.43-6.2-.5-12.02.65-18.08,1.71-10.84-.61-21.45-3-32.07l-2.14-9.53-4.44,19.71c-1.09,4.83-2.13,9.48-2.22,14.43-.2,11.2-7.07,27.21-11.97,38.06-3.25,7.19-5.91,14.35-7.19,22.17-.37,2.26.8,4.57,1.02,6.75.34,3.41-.24,6.55-.59,9.91l-1.99,19.13c-.1.98-1.21,1.72-1.85,1.73-.87.01-1.64-.87-1.63-1.89l.1-10.85c-1.31.4-.74,1.37-.85,2.27l-1.71,13.64c-.14,1.14-1.5,1.81-2.23,1.74-1.19-.12-1.99-1.4-1.86-2.73l1.12-12.17-.7-.03-2.4,15.25c-.22,1.39-1.27,2.24-2.46,2.18s-2.09-1.16-1.97-2.58l1.67-19.06-4.17,15.7c-.33,1.26-1.16,2.06-2.31,2.02s-2.16-1.38-1.94-2.77l2.46-15.73c.39-2.52.99-4.87.66-7.55-2.29,3.7-4.14,8.23-7.82,7.99-3.22-.21.82-4.38,2.12-8.72,1.91-6.39,7.86-13.33,13.18-17.46,3.28-13.79,5.02-27.33,6.07-41.36.45-6.1,1.35-11.82,3.11-17.58l4.49-10.81c1.45-3.49.38-7.5.35-11.33-.06-6.11.84-11.96,2.05-17.91.89-4.37,1.18-8.31.87-12.75-.89-12.61,4.04-28.86,16.81-33.18l9.13-3.09c7.55-2.56,14.34-6.67,21.25-10.6,1.69-.96,2.57-2.61,2.71-4.5.22-2.92.62-5.95.08-8.83s-1.7-5.15-1.72-8.11c-.7-.06-2.05.1-2.53-.57-3.05-4.24-4.83-12.11-3.05-13.51.55-.44,1.4-.47,2.46-.23-2.85-13.01.77-26.47,14.58-28.98,4.27-.77,8.64-.73,12.8.5,7.74,2.31,12.7,8.78,13.1,16.85.2,3.97-.18,7.7-.44,11.73.63-.31,1.36-.6,1.84-.39,2.47,1.08.43,9.85-2.62,14.09l-2.48.81c-.25,2.77-1.28,5.26-1.75,7.97-.53,3.04-.17,6.2.29,9.23.27,1.82,1.4,3.27,3.04,4.2,7.14,4.04,14.27,7.95,22.03,10.73l9.64,3.45c9.37,3.35,13.97,15.74,14.99,25.75.41,4.04-.21,7.97-.05,12.01l2,13.06c.68,4.44,1.22,8.64,1.07,13.18-.11,3.43-.57,7,.27,10.31l4.01,9.51c1.8,5.62,3.01,11.2,3.48,17.21,1.16,14.65,2.84,28.91,6.3,43.16,2.57,1.56,4.19,3.64,6.06,5.76,3.31,3.75,5.96,7.63,7.4,12.48,1.13,3.81,4.05,5.88,2.82,7.31-2.12,2.45-6.43-2.44-8.68-7.3-.49,2.37.15,4.52.49,6.8l2.45,16.48c.19,1.31-.55,2.58-1.72,2.7-.99.09-2.07-.68-2.4-1.92l-4.26-15.77,1.67,18.63c.13,1.42-.4,2.79-1.73,2.99-1.12.17-2.43-.68-2.65-2.09l-2.18-13.62c-.21.07-.43.06-.61.03l.78,10.89c.09,1.23-.63,2.17-1.69,2.32-.81.11-2.11-.56-2.28-1.69l-2.44-16.23-.25,11.11c.1.99-.53,1.75-1.33,1.87s-1.88-.47-2.01-1.61l-1.93-18.31c-1.07-5.71-1.04-11.16.46-16.77-1.58-9.65-5.16-18.32-9.19-27.15-3.44-7.52-6.14-14.96-8.35-22.88-1.33-4.78-1.8-9.35-2.05-14.28-.23-4.62-1.55-9-2.56-13.52l-3.9-17.42-3.99,18.63c-1.39,6.52-2.48,13.3-1.35,19.91,1.2,7.06.95,13.6,1.25,20.74l3.45,21.96c1.3,8.28,3.1,16.07,3.66,24.45.45,6.72.45,12.92.09,19.63-.87,16.27-2.61,32.13-6.08,48.08-1.21,5.54-1.45,10.56-1.45,16.17,0,8.87.38,17.26,1.87,26.02,1.71,10.04,1.92,19.96.1,29.95l-3.63,19.98-4.24,24.57c-.77,4.48-.56,8.73.37,13.17l.65,6.18,3.83,1.92c1.48.74,2.69,1.59,4.35,1.95,1.05.22,1.87,1.05,2.23,1.7.66,1.18.06,2.17-.39,3.28-2.36,5.77-7.61,5.55-11.99,11.03-1.8,2.26-4.2,3.28-6.84,4.12-2.38.75-7.74-.77-9.04-4.44-1.84-5.23,2.54-11.71.27-19.26-.85-2.81-.6-5.53.29-8.3,1.92-6.02,2.06-12.2,1.58-18.55l-3.05-20.23-2.77-15.8c-.98-5.59-.79-11.05-.28-16.73l1.3-14.42c.32-3.57-.05-7.3-.9-10.76-1.87-7.58-1.66-14.97-2.62-22.69l-4.98-40.04-2.64-31.49c-.05-.64-.76-1-1.15-.96-.36.04-.87.46-.92,1.07Z"/>
  </g>
</svg>